<mxfile host="app.diagrams.net" modified="2024-07-16T06:24:28.430Z" agent="Mozilla/5.0 (Windows NT 10.0; Win64; x64) AppleWebKit/537.36 (KHTML, like Gecko) Chrome/126.0.0.0 Safari/537.36" etag="trn0KYQr8VW2yfRKVnWu" version="24.6.5" type="github">
  <diagram name="페이지-1" id="jERm6EU6h7SOklrPmQn_">
    <mxGraphModel dx="2607" dy="1324" grid="1" gridSize="10" guides="1" tooltips="1" connect="1" arrows="1" fold="1" page="1" pageScale="1" pageWidth="827" pageHeight="1169" math="0" shadow="0">
      <root>
        <mxCell id="0" />
        <mxCell id="1" parent="0" />
      </root>
    </mxGraphModel>
  </diagram>
</mxfile>
